<svg xmlns="http://www.w3.org/2000/svg" xmlns:xlink="http://www.w3.org/1999/xlink" viewBox="0 0 405 405"><linearGradient id="a" x1="202.5" x2="202.5" y1="79.32" y2="263.41" gradientTransform="matrix(.70710678 .70710678 -.70710678 .70710678 180.49 -93)" gradientUnits="userSpaceOnUse"><stop offset=".01" stop-color="#333" stop-opacity=".7"/><stop offset="1" stop-opacity="0"/></linearGradient><linearGradient id="b" x1="202.5" x2="202.5" y1="113.28" y2="291.72" gradientTransform="matrix(.70710678 .70710678 -.70710678 .70710678 202.5 -83.88)" gradientUnits="userSpaceOnUse"><stop offset=".01" stop-color="#333" stop-opacity=".6"/><stop offset="1" stop-opacity=".8"/></linearGradient><linearGradient id="c" x1="202.5" x2="202.5" y1="147.37" y2="331.46" gradientTransform="matrix(.70710678 .70710678 -.70710678 .70710678 228.6 -73.07)" gradientUnits="userSpaceOnUse"><stop offset=".01" stop-color="#333" stop-opacity=".6"/><stop offset="1"/></linearGradient><path fill="none" d="m0 0h405v405h-405z"/><path fill="url(#a)" d="m137.41 106.28h130.17v130.17h-130.17z" transform="matrix(.70710678 -.70710678 .70710678 .70710678 -61.86 193.38)"/><path fill="url(#b)" d="m139.41 139.41h126.17v126.17h-126.17z" transform="matrix(.70710678 -.70710678 .70710678 .70710678 -83.88 202.5)"/><path fill="#ffbc00" d="m202.5 116.11 86.39 86.39-86.39 86.39-86.39-86.39zm0-5.66-92 92.05 92.05 92.05 92.05-92.05-92.05-92z"/><path fill="url(#c)" d="m137.41 174.33h130.17v130.17h-130.17z" transform="matrix(.70710678 -.70710678 .70710678 .70710678 -109.98 213.31)"/></svg>